<svg width="64" height="64" viewBox="0 0 64 64" fill="none" xmlns="http://www.w3.org/2000/svg">
  <rect width="64" height="64" rx="16" fill="#09090B"/>
  <path fill="#3A3E45" fill-rule="evenodd" clip-rule="evenodd" d="M12 10H29C42.6 10 52 19.2 52 32C52 44.8 42.6 54 29 54H12V10ZM21 18V46H28C36.8 46 43 40.1 43 32C43 23.9 36.8 18 28 18H21Z"/>
  <path fill="#D7A24B" d="M24 16H31V49H24V16ZM31 19H36C42.1 19 46 22.6 46 27.6C46 31 44.3 33.5 41.1 34.7C45 36 47.4 38.8 47.4 43C47.4 48.9 43 52 36 52H31V44.8H34.9C38.2 44.8 40.1 43.3 40.1 40.6C40.1 38.1 38.3 36.6 35 36.6H31V30H34.4C37.4 30 39.2 28.6 39.2 26.2C39.2 23.7 37.4 22.3 34.5 22.3H31V19Z"/>
</svg>
